<?xml version="1.0" encoding="UTF-8" standalone="no"?>
<!DOCTYPE svg PUBLIC "-//W3C//DTD SVG 1.1//EN" "http://www.w3.org/Graphics/SVG/1.1/DTD/svg11.dtd">
<svg width="100%" height="100%" viewBox="0 0 250 250" version="1.1" xmlns="http://www.w3.org/2000/svg" xmlns:xlink="http://www.w3.org/1999/xlink" xml:space="preserve" xmlns:serif="http://www.serif.com/" style="fill-rule:evenodd;clip-rule:evenodd;stroke-linejoin:bevel;stroke-miterlimit:10;">
    <g>
        <g transform="matrix(1.18153,0,0,1.135,-22.6907,-22.55)">
            <path d="M125,30L31.9,63.2L46.1,186.3L125,230L203.9,186.3L218.1,63.2L125,30Z" style="fill:rgb(221,0,49);fill-rule:nonzero;"/>
        </g>
        <g transform="matrix(1.18153,0,0,1.135,-22.6907,-22.55)">
            <path d="M125,30L125,52.2L125,52.1L125,230L203.9,186.3L218.1,63.2L125,30Z" style="fill:rgb(195,0,47);fill-rule:nonzero;"/>
        </g>
    </g>
    <g transform="matrix(1.18153,0,0,1.135,-22.6907,-22.55)">
        <g transform="matrix(4.35,0,0,4.35,129.029,143.445)">
            <path d="M0,-16L-16,-16C-17,-16 -18,-15 -18,-14L-18,-6C-18,-5 -17,-4 -16,-4L-13,-4L-12.989,0.46L-7,-4L0,-4C1,-4 2,-5 2,-6L2,-14C2,-15 1,-16 0,-16Z" style="fill:white;fill-rule:nonzero;stroke:black;stroke-width:0.4px;"/>
        </g>
        <g transform="matrix(1.90562,0,0,1.90562,32.3929,48.3034)">
            <g transform="matrix(22.3367,0,0,22.3367,25,35)">
                <path d="M-0.001,-0L0.273,-0.716L0.375,-0.716L0.668,-0L0.561,-0L0.477,-0.217L0.178,-0.217L0.099,-0L-0.001,-0ZM0.205,-0.294L0.448,-0.294L0.373,-0.492C0.35,-0.552 0.333,-0.602 0.322,-0.641C0.313,-0.595 0.3,-0.549 0.284,-0.504L0.205,-0.294Z" style="fill-rule:nonzero;"/>
            </g>
        </g>
    </g>
    <g transform="matrix(1.18153,0,0,1.135,-22.6907,-11.2)">
        <g transform="matrix(-4.35,0,0,4.35,122.429,173.8)">
            <path d="M0,-16L-16,-16C-17,-16 -18,-15 -18,-14L-18,-6C-18,-5 -17,-4 -16,-4L-13,-4L-12.989,0.46L-7,-4L0,-4C1,-4 2,-5 2,-6L2,-14C2,-15 1,-16 0,-16Z" style="fill:white;fill-rule:nonzero;stroke:black;stroke-width:0.4px;"/>
        </g>
        <g transform="matrix(2.07143,0,0,2.07143,9.08703,80.9402)">
            <rect x="63.461" y="12.715" width="16" height="22.4" style="fill:white;"/>
            <g transform="matrix(16,0,0,16,63.4606,29.6746)">
                <path d="M0.5,-0.387L0.625,-0.387L0.625,-0.36C0.624,-0.319 0.62,-0.28 0.613,-0.244L0.378,-0.244L0.378,-0.179L0.597,-0.179C0.589,-0.153 0.578,-0.129 0.565,-0.107C0.524,-0.044 0.452,0.006 0.349,0.043L0.388,0.105C0.495,0.065 0.572,0.011 0.619,-0.059C0.635,-0.085 0.649,-0.114 0.66,-0.146C0.716,-0.047 0.801,0.036 0.917,0.102L0.965,0.045C0.851,-0.012 0.767,-0.087 0.713,-0.179L0.946,-0.179L0.946,-0.244L0.684,-0.244C0.69,-0.279 0.693,-0.318 0.694,-0.36L0.694,-0.387L0.897,-0.387L0.897,-0.452L0.537,-0.452C0.547,-0.474 0.558,-0.498 0.568,-0.524L0.504,-0.549C0.472,-0.458 0.424,-0.386 0.36,-0.333L0.414,-0.286C0.445,-0.314 0.474,-0.347 0.5,-0.387ZM0.778,-0.77L0.723,-0.735C0.747,-0.705 0.771,-0.674 0.793,-0.644C0.685,-0.628 0.584,-0.617 0.489,-0.611C0.543,-0.659 0.593,-0.723 0.639,-0.805L0.568,-0.827C0.528,-0.752 0.476,-0.685 0.413,-0.625C0.404,-0.617 0.393,-0.611 0.381,-0.607L0.4,-0.547C0.57,-0.556 0.714,-0.57 0.832,-0.588C0.85,-0.562 0.866,-0.537 0.88,-0.511L0.937,-0.551C0.9,-0.613 0.847,-0.686 0.778,-0.77ZM0.162,-0.807L0.112,-0.758C0.184,-0.704 0.242,-0.652 0.284,-0.603L0.333,-0.653C0.287,-0.705 0.23,-0.756 0.162,-0.807ZM0.042,-0.511L0.042,-0.442L0.185,-0.442L0.185,-0.042C0.185,-0.026 0.177,-0.012 0.163,0.001L0.191,0.065C0.254,0.02 0.313,-0.031 0.369,-0.089L0.35,-0.165C0.316,-0.13 0.284,-0.098 0.254,-0.07L0.254,-0.511L0.042,-0.511Z" style="fill:rgb(24,25,26);fill-rule:nonzero;"/>
            </g>
        </g>
    </g>
</svg>
