<svg xmlns="http://www.w3.org/2000/svg" xml:space="preserve" style="fill-rule:evenodd;clip-rule:evenodd;stroke-linejoin:bevel;stroke-miterlimit:10" viewBox="0 0 400 400"><path d="M125 30 31.9 63.2l14.2 123.1L125 230l78.9-43.7 14.2-123.1L125 30Z" style="fill:#dd0031;fill-rule:nonzero" transform="matrix(2.02993 0 0 1.95 -53.742 -53.5)"/><path d="M125 30v22.2-.1V230l78.9-43.7 14.2-123.1L125 30Z" style="fill:#c3002f;fill-rule:nonzero" transform="matrix(2.02993 0 0 1.95 -53.742 -53.5)"/><path d="M0-16h-16c-1 0-2 1-2 2v8c0 1 1 2 2 2h3l.011 4.46L-7-4h7c1 0 2-1 2-2v-8c0-1-1-2-2-2Z" style="fill:#fff;fill-rule:nonzero;stroke:#000;stroke-width:.23px" transform="matrix(8.8302 0 0 8.4825 208.178 226.218)"/><path d="m-.001 0 .274-.716h.102L.668 0H.561L.477-.217H.178L.099 0h-.1Zm.206-.294h.243L.373-.492C.35-.552.333-.602.322-.641a.962.962 0 0 1-.038.137l-.079.21Z" style="fill-rule:nonzero" transform="matrix(86.4045 0 0 83.00226 108.72 170.75)"/><path d="M0-16h-16c-1 0-2 1-2 2v8c0 1 1 2 2 2h3l.011 4.46L-7-4h7c1 0 2-1 2-2v-8c0-1-1-2-2-2Z" style="fill:#fff;fill-rule:nonzero;stroke:#000;stroke-width:.23px" transform="matrix(-8.8302 0 0 8.4825 194.78 304.91)"/><path d="M63.461 12.715h16v22.4h-16z" style="fill:#fff" transform="matrix(4.20486 0 0 4.03929 -35.296 123.833)"/><path d="M.5-.387h.125v.027a.7.7 0 0 1-.012.116H.378v.065h.219a.335.335 0 0 1-.032.072.413.413 0 0 1-.216.15l.039.062a.46.46 0 0 0 .231-.164.436.436 0 0 0 .041-.087.661.661 0 0 0 .257.248L.965.045a.585.585 0 0 1-.252-.224h.233v-.065H.684a.809.809 0 0 0 .01-.116v-.027h.203v-.065h-.36c.01-.022.021-.046.031-.072L.504-.549a.48.48 0 0 1-.144.216l.054.047A.508.508 0 0 0 .5-.387ZM.778-.77l-.055.035.07.091a3.648 3.648 0 0 1-.304.033.74.74 0 0 0 .15-.194L.568-.827a.794.794 0 0 1-.155.202.092.092 0 0 1-.032.018l.019.06C.57-.556.714-.57.832-.588a.809.809 0 0 1 .048.077l.057-.04A1.866 1.866 0 0 0 .778-.77ZM.162-.807l-.05.049c.072.054.13.106.172.155l.049-.05a1.141 1.141 0 0 0-.171-.154Zm-.12.296v.069h.143v.4c0 .016-.008.03-.022.043l.028.064C.254.02.313-.031.369-.089L.35-.165a2.808 2.808 0 0 1-.096.095v-.441H.042Z" style="fill:#18191a;fill-rule:nonzero" transform="matrix(67.27773 0 0 64.62862 231.547 243.698)"/></svg>